<?xml version="1.0" encoding="utf-8"?>
<!-- Generator: Adobe Illustrator 27.6.0, SVG Export Plug-In . SVG Version: 6.00 Build 0)  -->
<svg version="1.1" id="Layer_1" xmlns="http://www.w3.org/2000/svg" xmlns:xlink="http://www.w3.org/1999/xlink" x="0px" y="0px"
	 viewBox="0 0 500 500" style="enable-background:new 0 0 500 500;" xml:space="preserve">
<style type="text/css">
	.st0{fill-rule:evenodd;clip-rule:evenodd;fill:#F55A5A;}
</style>
<path class="st0" d="M412.5,357.5c-2.7-2.5-4.7-5.1-5.4-7.4c-2.7-9.4,0.9-36.9,6.2-45.5c5.3-8.6-0.6-34.4-2.3-38.7
	c-1.8-4.3-2.4-9.9-8.5-8.2c-6.2,1.7-20,1.1-32.5-1.5c-12.5-2.6-23.5-14.6-26-28.3c-2.8-15.3-2.8-30.1,0.8-39.4
	c4-10.5,13.8-14.4,22.8-19.4c4.1-2.3,24.2-5.5,23.5-15.1c-4.7-8.9-47.2,1.2-49-12.6c-1.7-13.8-2.3-20.8,3.1-31.9
	c5.7-11.6-0.8-10.1-2.4-24.1c-0.2-2,4.2-7.2,4.6-9c14.7,8.4,28.5,18.3,40.9,30.2c38.8,37.3,60.1,86.8,60.1,139.5
	C448.4,286.5,435.8,324.9,412.5,357.5z M321.2,351.2c-8.5,13.4-6.4,23.3-25.7,33.6c-10.8,5.7-18.4,7.4-24.1,22.7
	c-5.7,15.4-15.2,14.8-38.9,27.3c-23.7,12.5-33.1,0-35-9.6c-1.9-9.6,3.9-32.3,3.9-32.3s2.3-6.8-14.5-14.4
	c-42.5-19.3-5.8-87.2-5.8-87.2c-9.6-11.2-34-33.3-68-40.5c-32.5-6.9-41.8-26-53.2-45c8.4-35.3,25.9-67.7,51.9-94
	c37.1-37.6,86.4-60.3,138.9-60.3c0,0,17.7,0,34.4,4.4c-15.3,16.8-32.4,33.8-45.1,38.5c-22.9,8.5-33.5,22.4-33.6,37.2
	c0,7.7,15.9,21.6,15.9,39.2c0,29.9-22,30.6-24.5,18c-5.8-28.6-27.9-21.2-54.4-18.3c-26.5,2.9-42.6,34.1-25.6,46.6
	c17.1,12.5,16.2-3.9,22.8-8.6c6.5-4.7,11.1-6.6,16.1,0c4.9,6.6,15.6,10.1,14.6,23.6c-0.9,13.4-3.8,25,14.3,25c18,0,18.6,4,30.1,9.8
	c11.3,5.8,22,4.7,31.5,6.6c9.5,1.9,21.9,20.5,21.9,20.5c26.9,8.8,35.7,12.4,43.1,19.9C319.4,321.4,329.7,337.8,321.2,351.2z M250,2
	L250,2h-0.1C151.5,2,66.7,59.5,26.6,142.5C10.9,175.1,2,211.4,2,250c0,136.9,110.9,248,247.9,248h0.1h0.1c136.9,0,248-111.1,248-248
	C498,111.8,385.3,2,250,2z"/>
</svg>
